<svg width="1766" height="150" viewBox="0 0 1766 150" fill="none" xmlns="http://www.w3.org/2000/svg">
<path d="M267.499 135.134H266.828V148.765H267.499V135.134Z" fill="#F2F6FF" stroke="#0050B2"/>
<path d="M265.856 143.072C266.689 144.89 267.012 146.856 266.8 148.806C265.046 147.597 263.651 146.033 262.732 144.249C261.897 142.429 261.574 140.459 261.789 138.507C263.543 139.72 264.938 141.286 265.856 143.072Z" fill="#F2F6FF" stroke="#0050B2"/>
<path d="M268.45 143.072C267.618 144.89 267.295 146.856 267.507 148.806C269.262 147.596 270.661 146.033 271.584 144.249C272.416 142.428 272.739 140.459 272.528 138.507C270.774 139.721 269.375 141.287 268.45 143.072Z" fill="#F2F6FF" stroke="#0050B2"/>
<path d="M268.33 129.649L268.924 130.702L270.245 130.867C270.495 130.898 270.73 130.99 270.923 131.132C271.117 131.274 271.262 131.461 271.341 131.671C271.419 131.882 271.429 132.108 271.368 132.323C271.309 132.538 271.181 132.734 271 132.889L270.056 133.717L270.283 134.877C270.325 135.094 270.297 135.317 270.201 135.521C270.107 135.724 269.948 135.9 269.744 136.029C269.541 136.157 269.301 136.233 269.051 136.248C268.801 136.263 268.551 136.215 268.33 136.111L267.16 135.565L265.97 136.111C265.749 136.216 265.497 136.264 265.246 136.249C264.995 136.234 264.754 136.157 264.55 136.028C264.345 135.898 264.187 135.72 264.092 135.515C264 135.31 263.972 135.086 264.016 134.869L264.243 133.709L263.299 132.88C263.119 132.726 262.991 132.531 262.93 132.316C262.87 132.102 262.878 131.877 262.956 131.666C263.033 131.456 263.177 131.269 263.369 131.126C263.562 130.984 263.795 130.891 264.045 130.859L265.366 130.693L265.951 129.649C266.064 129.458 266.235 129.298 266.445 129.187C266.654 129.075 266.895 129.016 267.14 129.016C267.385 129.016 267.626 129.075 267.836 129.187C268.045 129.298 268.216 129.458 268.33 129.649Z" fill="#F2F6FF" stroke="#0050B2"/>
<path d="M267.16 133.621C267.686 133.621 268.112 133.246 268.112 132.783C268.112 132.32 267.686 131.945 267.16 131.945C266.633 131.945 266.206 132.32 266.206 132.783C266.206 133.246 266.633 133.621 267.16 133.621Z" fill="#F2F6FF" stroke="#0050B2"/>
<path d="M659.992 135.134H659.321V148.765H659.992V135.134Z" fill="#F2F6FF" stroke="#0050B2"/>
<path d="M658.349 143.072C659.183 144.89 659.506 146.856 659.294 148.806C657.54 147.597 656.144 146.033 655.226 144.249C654.391 142.429 654.067 140.459 654.282 138.507C656.036 139.72 657.43 141.286 658.349 143.072Z" fill="#F2F6FF" stroke="#0050B2"/>
<path d="M660.944 143.072C660.112 144.89 659.789 146.856 660.001 148.806C661.756 147.596 663.155 146.033 664.079 144.249C664.911 142.428 665.234 140.459 665.022 138.507C663.268 139.721 661.869 141.287 660.944 143.072Z" fill="#F2F6FF" stroke="#0050B2"/>
<path d="M660.824 129.649L661.418 130.702L662.739 130.867C662.989 130.898 663.224 130.99 663.417 131.132C663.611 131.274 663.755 131.461 663.835 131.671C663.912 131.882 663.923 132.108 663.862 132.323C663.803 132.538 663.675 132.734 663.493 132.889L662.55 133.717L662.777 134.877C662.818 135.094 662.791 135.317 662.695 135.521C662.6 135.724 662.442 135.9 662.238 136.029C662.035 136.157 661.794 136.233 661.544 136.248C661.295 136.263 661.045 136.215 660.824 136.111L659.654 135.565L658.464 136.111C658.243 136.216 657.991 136.264 657.74 136.249C657.488 136.234 657.248 136.157 657.043 136.028C656.839 135.898 656.681 135.72 656.586 135.515C656.492 135.31 656.466 135.086 656.51 134.869L656.737 133.709L655.792 132.88C655.613 132.726 655.485 132.531 655.424 132.316C655.363 132.102 655.372 131.877 655.45 131.666C655.527 131.456 655.671 131.269 655.863 131.126C656.055 130.984 656.289 130.891 656.539 130.859L657.86 130.693L658.445 129.649C658.558 129.458 658.729 129.298 658.939 129.187C659.148 129.075 659.388 129.016 659.634 129.016C659.879 129.016 660.12 129.075 660.33 129.187C660.539 129.298 660.709 129.458 660.824 129.649Z" fill="#F2F6FF" stroke="#0050B2"/>
<path d="M659.652 133.621C660.179 133.621 660.606 133.246 660.606 132.783C660.606 132.32 660.179 131.945 659.652 131.945C659.126 131.945 658.7 132.32 658.7 132.783C658.7 133.246 659.126 133.621 659.652 133.621Z" fill="#F2F6FF" stroke="#0050B2"/>
<path d="M1229.96 135.134H1229.29V148.765H1229.96V135.134Z" fill="#F2F6FF" stroke="#0050B2"/>
<path d="M1228.32 143.072C1229.15 144.89 1229.47 146.856 1229.26 148.806C1227.51 147.597 1226.11 146.033 1225.19 144.249C1224.36 142.429 1224.03 140.459 1224.25 138.507C1226 139.72 1227.4 141.286 1228.32 143.072Z" fill="#F2F6FF" stroke="#0050B2"/>
<path d="M1230.91 143.072C1230.08 144.89 1229.75 146.856 1229.97 148.806C1231.72 147.596 1233.12 146.033 1234.04 144.249C1234.88 142.428 1235.2 140.459 1234.99 138.507C1233.23 139.721 1231.84 141.287 1230.91 143.072Z" fill="#F2F6FF" stroke="#0050B2"/>
<path d="M1230.79 129.649L1231.38 130.702L1232.7 130.867C1232.95 130.898 1233.19 130.99 1233.38 131.132C1233.58 131.274 1233.72 131.461 1233.8 131.671C1233.88 131.882 1233.89 132.108 1233.83 132.323C1233.77 132.538 1233.64 132.734 1233.46 132.889L1232.52 133.717L1232.74 134.877C1232.79 135.094 1232.76 135.317 1232.66 135.521C1232.57 135.724 1232.41 135.9 1232.2 136.029C1232 136.157 1231.76 136.233 1231.51 136.248C1231.26 136.263 1231.01 136.215 1230.79 136.111L1229.62 135.565L1228.43 136.111C1228.21 136.216 1227.96 136.264 1227.71 136.249C1227.46 136.234 1227.21 136.157 1227.01 136.028C1226.81 135.898 1226.65 135.72 1226.55 135.515C1226.46 135.31 1226.43 135.086 1226.48 134.869L1226.7 133.709L1225.76 132.88C1225.58 132.726 1225.45 132.531 1225.39 132.316C1225.33 132.102 1225.34 131.877 1225.42 131.666C1225.49 131.456 1225.64 131.269 1225.83 131.126C1226.02 130.984 1226.26 130.891 1226.5 130.859L1227.83 130.693L1228.41 129.649C1228.52 129.458 1228.7 129.298 1228.9 129.187C1229.11 129.075 1229.36 129.016 1229.6 129.016C1229.85 129.016 1230.09 129.075 1230.3 129.187C1230.51 129.298 1230.68 129.458 1230.79 129.649Z" fill="#F2F6FF" stroke="#0050B2"/>
<path d="M1229.62 133.621C1230.15 133.621 1230.57 133.246 1230.57 132.783C1230.57 132.32 1230.15 131.945 1229.62 131.945C1229.09 131.945 1228.67 132.32 1228.67 132.783C1228.67 133.246 1229.09 133.621 1229.62 133.621Z" fill="#F2F6FF" stroke="#0050B2"/>
<path d="M1605.81 135.134H1605.14V148.765H1605.81V135.134Z" fill="#F2F6FF" stroke="#0050B2"/>
<path d="M1604.17 143.072C1605 144.89 1605.32 146.856 1605.11 148.806C1603.36 147.597 1601.97 146.033 1601.04 144.249C1600.22 142.429 1599.88 140.459 1600.1 138.507C1601.86 139.72 1603.25 141.286 1604.17 143.072Z" fill="#F2F6FF" stroke="#0050B2"/>
<path d="M1606.77 143.072C1605.93 144.89 1605.61 146.856 1605.83 148.806C1607.58 147.596 1608.98 146.033 1609.89 144.249C1610.73 142.428 1611.05 140.459 1610.84 138.507C1609.09 139.721 1607.68 141.287 1606.77 143.072Z" fill="#F2F6FF" stroke="#0050B2"/>
<path d="M1606.65 129.649L1607.24 130.702L1608.55 130.867C1608.81 130.898 1609.04 130.99 1609.24 131.132C1609.44 131.274 1609.57 131.461 1609.65 131.671C1609.73 131.882 1609.74 132.108 1609.68 132.323C1609.62 132.538 1609.5 132.734 1609.32 132.889L1608.37 133.717L1608.6 134.877C1608.64 135.094 1608.61 135.317 1608.52 135.521C1608.42 135.724 1608.26 135.9 1608.07 136.029C1607.85 136.157 1607.61 136.233 1607.36 136.248C1607.12 136.263 1606.86 136.215 1606.65 136.111L1605.48 135.565L1604.29 136.111C1604.06 136.216 1603.81 136.264 1603.56 136.249C1603.31 136.234 1603.07 136.157 1602.87 136.028C1602.66 135.898 1602.5 135.72 1602.41 135.515C1602.31 135.31 1602.29 135.086 1602.34 134.869L1602.56 133.709L1601.62 132.88C1601.44 132.726 1601.3 132.531 1601.24 132.316C1601.18 132.102 1601.19 131.877 1601.27 131.666C1601.35 131.456 1601.5 131.269 1601.68 131.126C1601.88 130.984 1602.11 130.891 1602.37 130.859L1603.68 130.693L1604.27 129.649C1604.38 129.458 1604.55 129.298 1604.76 129.187C1604.97 129.075 1605.22 129.016 1605.46 129.016C1605.7 129.016 1605.95 129.075 1606.15 129.187C1606.36 129.298 1606.53 129.458 1606.65 129.649Z" fill="#F2F6FF" stroke="#0050B2"/>
<path d="M1605.48 133.621C1605.99 133.621 1606.42 133.246 1606.42 132.783C1606.42 132.32 1605.99 131.945 1605.48 131.945C1604.94 131.945 1604.52 132.32 1604.52 132.783C1604.52 133.246 1604.94 133.621 1605.48 133.621Z" fill="#F2F6FF" stroke="#0050B2"/>
<path d="M13.1841 138.838H4.39258V148.344H13.1841V138.838Z" fill="#F2F6FF" stroke="#0050B2"/>
<path d="M10.7342 110.396H6.8418V138.838H10.7342V110.396Z" fill="#F2F6FF" stroke="#0050B2"/>
<path d="M9.84672 43.2587H7.74951V110.396H9.84672V43.2587Z" fill="#F2F6FF" stroke="#0050B2"/>
<path d="M8.77322 43.2605C12.1288 43.2605 14.7797 42.2552 14.7797 41.0247H2.75C2.75 42.2552 5.45122 43.2605 8.77322 43.2605Z" fill="#F2F6FF" stroke="#0050B2"/>
<path d="M8.77192 21.7443C12.765 21.7443 16.0199 23.1391 16.0199 24.8638H1.52393C1.52393 23.1391 4.76203 21.7443 8.77192 21.7443Z" fill="#F2F6FF" stroke="#0050B2"/>
<path d="M8.7875 41.0262H4.12328L3.21729 24.8624H8.7875V41.0262Z" fill="#F2F6FF" stroke="#0050B2"/>
<path d="M8.78809 41.0262H13.4523L14.3583 24.8624H8.78809V41.0262Z" fill="#F2F6FF" stroke="#0050B2"/>
<path d="M10.803 19.9455C10.803 20.3014 10.6849 20.6494 10.4637 20.9453C10.2425 21.2414 9.92805 21.472 9.56016 21.6082C9.19227 21.7444 8.78746 21.7802 8.39692 21.7106C8.00637 21.6412 7.64762 21.4699 7.36605 21.2181C7.08448 20.9664 6.89274 20.6456 6.81506 20.2965C6.73736 19.9474 6.77724 19.5855 6.92963 19.2567C7.082 18.9278 7.34006 18.6467 7.67115 18.449C8.00224 18.2511 8.39149 18.1456 8.7897 18.1456C9.32366 18.1456 9.83577 18.3352 10.2133 18.6728C10.5909 19.0103 10.803 19.4681 10.803 19.9455Z" fill="#F2F6FF" stroke="#0050B2"/>
<path d="M783.562 138.907H775.244V148.419H783.562V138.907Z" fill="#F2F6FF" stroke="#0050B2"/>
<path d="M781.244 110.449H777.562V138.907H781.244V110.449Z" fill="#F2F6FF" stroke="#0050B2"/>
<path d="M780.403 43.273H778.419V110.449H780.403V43.273Z" fill="#F2F6FF" stroke="#0050B2"/>
<path d="M779.385 43.2749C782.561 43.2749 785.069 42.269 785.069 41.0379H773.688C773.688 42.269 776.243 43.2749 779.385 43.2749Z" fill="#F2F6FF" stroke="#0050B2"/>
<path d="M779.387 21.7465C783.164 21.7465 786.243 23.1421 786.243 24.8677H772.53C772.53 23.1421 775.592 21.7465 779.387 21.7465Z" fill="#F2F6FF" stroke="#0050B2"/>
<path d="M779.403 41.0394H774.991L774.134 24.8662H779.403V41.0394Z" fill="#F2F6FF" stroke="#0050B2"/>
<path d="M779.402 41.0394H783.815L784.671 24.8662H779.402V41.0394Z" fill="#F2F6FF" stroke="#0050B2"/>
<path d="M781.306 19.9464C781.306 20.3026 781.194 20.6508 780.985 20.947C780.776 21.2431 780.479 21.474 780.13 21.6102C779.783 21.7465 779.399 21.7821 779.03 21.7128C778.66 21.6432 778.321 21.4717 778.055 21.2199C777.788 20.9681 777.607 20.6471 777.534 20.2978C777.461 19.9485 777.497 19.5864 777.642 19.2573C777.787 18.9282 778.03 18.647 778.343 18.4491C778.657 18.2512 779.025 18.1456 779.402 18.1456C779.906 18.1456 780.391 18.3353 780.749 18.6731C781.105 19.0108 781.306 19.4688 781.306 19.9464Z" fill="#F2F6FF" stroke="#0050B2"/>
<path d="M1343.54 138.838H1334.75V148.344H1343.54V138.838Z" fill="#F2F6FF" stroke="#0050B2"/>
<path d="M1341.09 110.396H1337.2V138.838H1341.09V110.396Z" fill="#F2F6FF" stroke="#0050B2"/>
<path d="M1340.21 43.2587H1338.11V110.396H1340.21V43.2587Z" fill="#F2F6FF" stroke="#0050B2"/>
<path d="M1339.13 43.2605C1342.49 43.2605 1345.14 42.2552 1345.14 41.0247H1333.11C1333.11 42.2552 1335.81 43.2605 1339.13 43.2605Z" fill="#F2F6FF" stroke="#0050B2"/>
<path d="M1339.13 21.7443C1343.12 21.7443 1346.38 23.1391 1346.38 24.8638H1331.88C1331.88 23.1391 1335.12 21.7443 1339.13 21.7443Z" fill="#F2F6FF" stroke="#0050B2"/>
<path d="M1339.15 41.0262H1334.48L1333.58 24.8624H1339.15V41.0262Z" fill="#F2F6FF" stroke="#0050B2"/>
<path d="M1339.15 41.0262H1343.81L1344.72 24.8624H1339.15V41.0262Z" fill="#F2F6FF" stroke="#0050B2"/>
<path d="M1341.16 19.9455C1341.16 20.3014 1341.04 20.6494 1340.82 20.9453C1340.6 21.2414 1340.29 21.472 1339.92 21.6082C1339.55 21.7444 1339.15 21.7802 1338.76 21.7106C1338.37 21.6412 1338.01 21.4699 1337.73 21.2181C1337.44 20.9664 1337.25 20.6456 1337.17 20.2965C1337.1 19.9474 1337.14 19.5855 1337.29 19.2567C1337.44 18.9278 1337.7 18.6467 1338.03 18.449C1338.36 18.2511 1338.75 18.1456 1339.15 18.1456C1339.68 18.1456 1340.2 18.3352 1340.57 18.6728C1340.95 19.0103 1341.16 19.4681 1341.16 19.9455Z" fill="#F2F6FF" stroke="#0050B2"/>
<path d="M423.033 137.274C422.995 137.001 422.893 136.738 422.733 136.503C422.571 136.269 422.358 136.068 422.103 135.915C421.622 135.717 421.081 135.673 420.569 135.789V135.664C420.56 135.393 420.505 135.125 420.406 134.869C420.307 134.612 420.174 134.366 420.011 134.137L419.615 133.865C420.075 133.631 420.441 133.273 420.662 132.841C420.732 132.58 420.732 132.307 420.662 132.046C420.659 131.785 420.621 131.525 420.546 131.272C420.416 131.013 420.244 130.774 420.034 130.562C419.837 130.378 419.588 130.247 419.313 130.185C418.978 130.103 418.625 130.103 418.291 130.185C418.311 129.983 418.311 129.78 418.291 129.579C418.655 129.521 419.002 129.399 419.313 129.22C419.624 129.04 419.894 128.807 420.104 128.533C420.224 128.275 420.287 127.998 420.287 127.718C420.287 127.437 420.224 127.16 420.104 126.902C419.988 126.488 419.722 126.12 419.347 125.858C418.972 125.597 418.509 125.456 418.035 125.459C418.09 125.373 418.137 125.282 418.174 125.187C418.263 124.928 418.285 124.653 418.238 124.384C418.189 124.116 418.071 123.861 417.895 123.64C417.87 123.565 417.831 123.494 417.779 123.431L417.965 123.326C418.236 123.154 418.433 122.903 418.522 122.615C418.647 122.257 418.711 121.883 418.708 121.507C418.754 121.162 418.719 120.812 418.605 120.48C418.49 120.147 418.3 119.84 418.047 119.578C417.793 119.316 417.48 119.105 417.13 118.958C416.779 118.812 416.398 118.732 416.011 118.726C416.144 118.516 416.208 118.277 416.197 118.036C416.194 117.713 416.123 117.394 415.988 117.095C415.891 116.734 415.699 116.4 415.428 116.119C415.157 115.839 414.815 115.622 414.431 115.485C414.722 115.247 414.946 114.95 415.086 114.62C415.227 114.289 415.278 113.933 415.239 113.581C415.198 113.229 415.065 112.89 414.852 112.593C414.64 112.295 414.352 112.047 414.012 111.867C413.771 111.656 413.483 111.494 413.165 111.393C412.848 111.292 412.511 111.254 412.176 111.282C411.594 111.282 411.059 111.784 410.502 112.62C410.297 112.498 410.069 112.413 409.828 112.369C409.939 112.124 409.993 111.861 409.987 111.597C409.98 111.332 409.915 111.072 409.793 110.831C409.671 110.59 409.496 110.374 409.278 110.197C409.06 110.019 408.804 109.883 408.525 109.797C408.257 109.66 407.96 109.573 407.652 109.541C407.344 109.508 407.034 109.532 406.736 109.609C406.087 109.95 405.612 110.505 405.411 111.156C405.199 111.095 404.981 111.053 404.76 111.031C404.89 110.747 404.938 110.437 404.899 110.132C404.845 109.872 404.707 109.632 404.504 109.442C404.291 109.23 404.039 109.054 403.761 108.919C403.492 108.775 403.203 108.67 402.9 108.605C402.603 108.532 402.29 108.532 401.993 108.605C401.499 108.768 401.076 109.068 400.785 109.463C400.712 109.351 400.617 109.252 400.506 109.17C400.279 108.997 400.018 108.862 399.738 108.773C399.456 108.664 399.159 108.594 398.854 108.563H398.691C398.871 108.11 398.871 107.616 398.691 107.162C398.546 106.914 398.341 106.697 398.092 106.527C397.844 106.357 397.556 106.239 397.251 106.18C396.652 105.97 395.988 105.97 395.391 106.18C394.769 106.573 394.338 107.163 394.182 107.832H393.926C393.773 107.811 393.616 107.811 393.462 107.832C393.314 107.811 393.166 107.811 393.02 107.832H392.764C392.86 107.55 392.938 107.264 392.995 106.974C393.128 106.632 393.178 106.269 393.142 105.908C393.105 105.548 392.985 105.198 392.787 104.883C392.593 104.673 392.346 104.508 392.066 104.402C391.754 104.25 391.417 104.144 391.066 104.089C390.388 104.014 389.703 104.163 389.137 104.507C388.831 104.779 388.593 105.105 388.436 105.466C388.281 105.826 388.209 106.212 388.231 106.598C388.231 106.807 388.231 107.016 388.231 107.246H387.975C387.705 107.291 387.449 107.385 387.221 107.521C386.993 107.658 386.798 107.835 386.649 108.041C386.264 107.64 385.739 107.368 385.162 107.267C384.856 107.204 384.537 107.204 384.231 107.267L383.813 107.434C383.663 107.503 383.522 107.587 383.394 107.685C383.105 107.821 382.86 108.025 382.689 108.275C382.517 108.525 382.424 108.813 382.418 109.107C382.424 109.308 382.471 109.507 382.558 109.693H382.209C381.529 109.608 380.841 109.758 380.28 110.111C379.974 110.384 379.734 110.71 379.574 111.07C379.414 111.43 379.338 111.815 379.349 112.202V112.871H379.093C378.823 112.922 378.567 113.02 378.34 113.16C378.113 113.3 377.918 113.479 377.769 113.687C377.382 113.291 376.858 113.026 376.28 112.934C375.974 112.871 375.657 112.871 375.351 112.934L374.909 113.101L374.514 113.331C374.263 113.466 374.051 113.651 373.892 113.873C373.736 114.094 373.638 114.345 373.608 114.607C373.697 115.252 374.045 115.846 374.583 116.28C374.173 116.71 373.95 117.26 373.955 117.827C373.697 117.762 373.423 117.762 373.166 117.827C372.811 117.857 372.465 117.941 372.142 118.078C371.75 118.197 371.395 118.397 371.104 118.662C370.813 118.927 370.595 119.25 370.469 119.604C370.185 119.358 369.839 119.175 369.461 119.072C369.084 118.969 368.684 118.948 368.296 119.012C367.907 119.075 367.542 119.22 367.228 119.436C366.914 119.652 366.662 119.932 366.493 120.253C366.31 120.491 366.185 120.761 366.126 121.046C366.067 121.33 366.073 121.622 366.144 121.904C366.284 122.406 366.772 122.866 367.724 123.285C367.624 123.484 367.554 123.695 367.516 123.912C367.237 123.829 366.941 123.799 366.649 123.824C366.356 123.848 366.073 123.927 365.815 124.054C365.558 124.182 365.332 124.356 365.152 124.565C364.974 124.774 364.845 125.015 364.773 125.271C364.642 125.527 364.573 125.805 364.573 126.087C364.573 126.368 364.642 126.647 364.773 126.902C364.979 127.181 365.245 127.42 365.558 127.603C365.869 127.787 366.219 127.911 366.586 127.968C366.527 128.16 366.487 128.356 366.47 128.554C366.143 128.472 365.797 128.472 365.469 128.554C365.184 128.618 364.925 128.757 364.726 128.951C364.532 129.166 364.36 129.397 364.215 129.641C364.072 129.899 363.971 130.174 363.912 130.457C363.813 130.719 363.783 130.998 363.819 131.272C364.026 131.7 364.386 132.054 364.843 132.276C364.738 132.356 364.643 132.448 364.563 132.548C364.38 132.766 364.246 133.015 364.168 133.28C364.064 133.535 364.002 133.803 363.982 134.074C363.982 134.074 363.982 134.074 363.982 134.221C363.485 134.065 362.944 134.065 362.448 134.221C362.187 134.389 361.968 134.604 361.803 134.852C361.639 135.101 361.534 135.377 361.494 135.664C361.331 136.221 361.413 136.813 361.727 137.316C361.957 137.582 362.245 137.805 362.573 137.97C362.9 138.135 363.26 138.24 363.633 138.277C363.633 138.277 363.633 138.445 363.633 138.507C363.623 138.647 363.623 138.787 363.633 138.926C363.621 139.058 363.621 139.191 363.633 139.323C363.693 139.587 363.83 139.833 364.029 140.034C364.252 140.266 364.541 140.44 364.866 140.536L365.331 140.64C365.309 141.202 365.517 141.752 365.911 142.188C366.262 142.455 366.67 142.653 367.11 142.768C367.552 142.884 368.014 142.914 368.47 142.857H369.166C369.154 142.933 369.154 143.011 369.166 143.087C369.239 143.346 369.375 143.588 369.564 143.794C369.752 144 369.99 144.166 370.26 144.279C370.914 144.443 371.611 144.376 372.212 144.091C372.279 144.158 372.358 144.214 372.445 144.258C372.238 144.54 372.11 144.863 372.073 145.199C372.046 145.484 372.093 145.77 372.212 146.035L372.421 146.412L372.724 146.767C372.888 146.981 373.106 147.157 373.361 147.28C373.615 147.404 373.899 147.472 374.188 147.478C374.921 147.341 375.573 146.97 376.024 146.433C377.682 147.165 379.442 147.692 381.255 148.001C385.866 148.742 390.582 148.777 395.205 148.105C397.33 147.975 399.41 147.493 401.342 146.683C403.668 146.683 405.805 146.516 408.061 146.412C408.42 146.751 408.894 146.972 409.409 147.039C409.699 147.033 409.982 146.965 410.236 146.841C410.491 146.718 410.709 146.542 410.873 146.328L411.177 145.973C411.486 145.877 411.781 145.751 412.06 145.596C412.699 145.929 413.458 146.027 414.175 145.868C414.446 145.754 414.686 145.588 414.879 145.382C415.071 145.176 415.211 144.936 415.291 144.676V144.446H416.011C416.429 144.48 416.851 144.438 417.25 144.323C417.649 144.208 418.018 144.023 418.337 143.777C418.739 143.352 418.954 142.809 418.941 142.25C419.17 142.237 419.396 142.202 419.615 142.146C419.959 142.078 420.279 141.935 420.546 141.728C420.729 141.528 420.855 141.291 420.918 141.038C420.928 140.905 420.928 140.773 420.918 140.64C420.928 140.501 420.928 140.361 420.918 140.222C420.918 140.222 420.918 140.055 420.918 139.992C421.67 139.896 422.358 139.553 422.847 139.03C423.007 138.763 423.104 138.47 423.136 138.169C423.168 137.867 423.133 137.563 423.033 137.274Z" fill="#F2F6FF" stroke="#0050B2"/>
<path d="M401.004 117.048C400.342 117.305 399.603 117.349 398.912 117.174C398.615 117.056 398.346 116.886 398.122 116.674C397.898 116.462 397.725 116.212 397.609 115.938C398.261 115.66 398.998 115.586 399.701 115.728C400.309 116.001 400.775 116.473 401.004 117.048Z" fill="#F2F6FF" stroke="#0050B2"/>
<path d="M400.934 113.847C400.679 114.592 400.155 115.24 399.447 115.688C398.7 115.956 397.868 115.956 397.122 115.688C397.367 114.944 397.883 114.296 398.586 113.847C399.339 113.566 400.183 113.566 400.934 113.847Z" fill="#F2F6FF" stroke="#0050B2"/>
<path d="M399.005 115.687C399.009 115.941 398.93 116.19 398.776 116.403C398.622 116.616 398.401 116.783 398.141 116.882C397.88 116.981 397.594 117.008 397.316 116.96C397.039 116.911 396.785 116.789 396.585 116.61C396.385 116.43 396.25 116.201 396.195 115.951C396.142 115.702 396.17 115.444 396.282 115.21C396.391 114.976 396.577 114.777 396.814 114.638C397.05 114.5 397.329 114.428 397.61 114.432C397.793 114.432 397.975 114.464 398.144 114.527C398.313 114.59 398.467 114.683 398.596 114.799C398.726 114.916 398.829 115.054 398.899 115.207C398.97 115.359 399.005 115.522 399.005 115.687Z" fill="#F2F6FF" stroke="#0050B2"/>
<path d="M394.885 129.125C394.225 129.382 393.489 129.434 392.792 129.272C392.489 129.14 392.218 128.956 391.994 128.73C391.772 128.503 391.599 128.239 391.491 127.952C392.151 127.695 392.89 127.651 393.583 127.826C393.887 127.951 394.159 128.13 394.383 128.354C394.607 128.577 394.778 128.84 394.885 129.125Z" fill="#F2F6FF" stroke="#0050B2"/>
<path d="M394.839 125.965C394.58 126.715 394.048 127.364 393.327 127.807C392.958 127.945 392.564 128.016 392.165 128.016C391.765 128.016 391.371 127.945 391.002 127.807C391.261 127.057 391.793 126.408 392.514 125.965C393.259 125.688 394.094 125.688 394.839 125.965Z" fill="#F2F6FF" stroke="#0050B2"/>
<path d="M392.91 127.701C392.904 128.037 392.753 128.359 392.488 128.597C392.224 128.835 391.866 128.971 391.493 128.977C391.116 128.977 390.755 128.842 390.49 128.603C390.224 128.364 390.074 128.039 390.074 127.701C390.074 127.362 390.224 127.038 390.49 126.799C390.755 126.559 391.116 126.425 391.493 126.425C391.869 126.425 392.229 126.559 392.495 126.799C392.761 127.038 392.91 127.362 392.91 127.701Z" fill="#F2F6FF" stroke="#0050B2"/>
<path d="M379.301 123.371C378.634 123.629 377.89 123.681 377.187 123.517C376.58 123.245 376.114 122.772 375.885 122.198C376.553 121.939 377.299 121.895 378 122.072C378.302 122.201 378.572 122.382 378.794 122.604C379.018 122.827 379.19 123.088 379.301 123.371Z" fill="#F2F6FF" stroke="#0050B2"/>
<path d="M379.233 120.211C378.988 120.955 378.473 121.603 377.769 122.052C377.4 122.191 377.005 122.262 376.606 122.262C376.207 122.262 375.812 122.191 375.443 122.052C375.702 121.302 376.234 120.653 376.955 120.211C377.686 119.943 378.503 119.943 379.233 120.211Z" fill="#F2F6FF" stroke="#0050B2"/>
<path d="M375.887 123.306C376.67 123.306 377.304 122.735 377.304 122.03C377.304 121.326 376.67 120.754 375.887 120.754C375.104 120.754 374.468 121.326 374.468 122.03C374.468 122.735 375.104 123.306 375.887 123.306Z" fill="#F2F6FF" stroke="#0050B2"/>
<path d="M413.169 132.174C412.509 132.43 411.77 132.475 411.077 132.299C410.774 132.175 410.501 131.995 410.277 131.772C410.053 131.548 409.883 131.286 409.776 131.001C410.436 130.744 411.172 130.692 411.868 130.854C412.171 130.985 412.442 131.169 412.666 131.396C412.889 131.622 413.061 131.887 413.169 132.174Z" fill="#F2F6FF" stroke="#0050B2"/>
<path d="M413.124 128.993C412.866 129.743 412.333 130.392 411.612 130.835C410.867 131.109 410.032 131.109 409.287 130.835C409.543 130.089 410.066 129.441 410.776 128.993C411.529 128.72 412.371 128.72 413.124 128.993Z" fill="#F2F6FF" stroke="#0050B2"/>
<path d="M411.195 130.812C411.195 131.151 411.045 131.475 410.78 131.715C410.513 131.954 410.154 132.088 409.778 132.088C409.497 132.088 409.223 132.014 408.99 131.873C408.757 131.733 408.574 131.534 408.467 131.301C408.359 131.068 408.332 130.811 408.386 130.563C408.441 130.316 408.575 130.089 408.775 129.91C408.973 129.732 409.226 129.61 409.5 129.561C409.776 129.512 410.061 129.537 410.32 129.634C410.579 129.73 410.8 129.894 410.957 130.104C411.112 130.314 411.195 130.56 411.195 130.812Z" fill="#F2F6FF" stroke="#0050B2"/>
<path d="M396.227 143.027C395.567 143.284 394.831 143.335 394.135 143.173C393.832 143.042 393.56 142.858 393.336 142.631C393.112 142.405 392.942 142.14 392.833 141.854C393.493 141.597 394.232 141.553 394.926 141.728C395.229 141.853 395.502 142.032 395.726 142.256C395.95 142.479 396.12 142.741 396.227 143.027Z" fill="#F2F6FF" stroke="#0050B2"/>
<path d="M396.181 139.867C395.922 140.617 395.391 141.266 394.67 141.708C394.301 141.847 393.907 141.918 393.507 141.918C393.108 141.918 392.713 141.847 392.345 141.708C392.604 140.959 393.136 140.309 393.856 139.867C394.601 139.59 395.436 139.59 396.181 139.867Z" fill="#F2F6FF" stroke="#0050B2"/>
<path d="M394.252 141.728C394.246 142.063 394.094 142.382 393.829 142.617C393.564 142.852 393.207 142.983 392.834 142.983C392.634 143.006 392.432 142.991 392.238 142.938C392.046 142.885 391.868 142.795 391.717 142.676C391.564 142.556 391.444 142.408 391.36 142.243C391.278 142.078 391.235 141.899 391.235 141.718C391.235 141.536 391.278 141.357 391.36 141.192C391.444 141.027 391.564 140.879 391.717 140.76C391.868 140.64 392.046 140.55 392.238 140.497C392.432 140.444 392.634 140.429 392.834 140.452C393.21 140.452 393.571 140.586 393.836 140.826C394.103 141.065 394.252 141.39 394.252 141.728Z" fill="#F2F6FF" stroke="#0050B2"/>
<path d="M374.489 137.109C373.818 137.356 373.075 137.4 372.375 137.234C372.073 137.106 371.803 136.925 371.579 136.702C371.357 136.479 371.185 136.219 371.072 135.936C371.719 135.691 372.437 135.64 373.118 135.789C373.75 136.048 374.244 136.523 374.489 137.109Z" fill="#F2F6FF" stroke="#0050B2"/>
<path d="M374.419 133.928C374.162 134.678 373.63 135.327 372.909 135.77C372.164 136.044 371.329 136.044 370.584 135.77C370.841 135.02 371.375 134.371 372.096 133.928C372.841 133.654 373.676 133.654 374.419 133.928Z" fill="#F2F6FF" stroke="#0050B2"/>
<path d="M372.492 135.748C372.492 136 372.408 136.247 372.253 136.456C372.097 136.666 371.876 136.83 371.616 136.926C371.357 137.023 371.072 137.048 370.798 136.999C370.522 136.95 370.269 136.828 370.071 136.65C369.873 136.471 369.737 136.244 369.682 135.997C369.629 135.749 369.656 135.492 369.763 135.259C369.871 135.026 370.052 134.827 370.286 134.687C370.519 134.547 370.793 134.472 371.073 134.472C371.261 134.472 371.445 134.505 371.616 134.569C371.788 134.633 371.945 134.727 372.076 134.845C372.209 134.964 372.312 135.105 372.384 135.259C372.455 135.414 372.492 135.58 372.492 135.748Z" fill="#F2F6FF" stroke="#0050B2"/>
<path d="M1119.09 137.274C1119.05 137.001 1118.95 136.738 1118.79 136.503C1118.63 136.269 1118.41 136.068 1118.16 135.915C1117.68 135.717 1117.14 135.673 1116.62 135.789V135.664C1116.62 135.393 1116.56 135.125 1116.46 134.869C1116.36 134.612 1116.23 134.366 1116.06 134.137L1115.67 133.865C1116.13 133.631 1116.5 133.273 1116.72 132.841C1116.79 132.58 1116.79 132.307 1116.72 132.046C1116.71 131.785 1116.67 131.525 1116.6 131.272C1116.47 131.013 1116.3 130.774 1116.09 130.562C1115.89 130.378 1115.64 130.247 1115.37 130.185C1115.03 130.103 1114.68 130.103 1114.34 130.185C1114.37 129.983 1114.37 129.78 1114.34 129.579C1114.71 129.521 1115.06 129.399 1115.37 129.22C1115.68 129.04 1115.95 128.807 1116.16 128.533C1116.28 128.275 1116.34 127.998 1116.34 127.718C1116.34 127.437 1116.28 127.16 1116.16 126.902C1116.04 126.488 1115.78 126.12 1115.4 125.858C1115.03 125.597 1114.56 125.456 1114.09 125.459C1114.15 125.373 1114.19 125.282 1114.23 125.187C1114.32 124.928 1114.34 124.653 1114.29 124.384C1114.24 124.116 1114.13 123.861 1113.95 123.64C1113.93 123.565 1113.89 123.494 1113.83 123.431L1114.02 123.326C1114.29 123.154 1114.49 122.903 1114.58 122.615C1114.7 122.257 1114.77 121.883 1114.76 121.507C1114.81 121.162 1114.77 120.812 1114.66 120.48C1114.55 120.147 1114.36 119.84 1114.1 119.578C1113.85 119.316 1113.53 119.105 1113.18 118.958C1112.83 118.812 1112.45 118.732 1112.07 118.726C1112.2 118.516 1112.26 118.277 1112.25 118.036C1112.25 117.713 1112.18 117.394 1112.04 117.095C1111.95 116.734 1111.75 116.4 1111.48 116.119C1111.21 115.839 1110.87 115.622 1110.49 115.485C1110.78 115.247 1111 114.95 1111.14 114.62C1111.28 114.289 1111.33 113.933 1111.29 113.581C1111.25 113.229 1111.12 112.89 1110.91 112.593C1110.69 112.295 1110.41 112.047 1110.07 111.867C1109.83 111.656 1109.54 111.494 1109.22 111.393C1108.9 111.292 1108.57 111.254 1108.23 111.282C1107.65 111.282 1107.11 111.784 1106.56 112.62C1106.35 112.498 1106.12 112.413 1105.88 112.369C1105.99 112.124 1106.05 111.861 1106.04 111.597C1106.04 111.332 1105.97 111.072 1105.85 110.831C1105.72 110.59 1105.55 110.374 1105.33 110.197C1105.11 110.019 1104.86 109.883 1104.58 109.797C1104.31 109.66 1104.01 109.573 1103.71 109.541C1103.4 109.508 1103.09 109.532 1102.79 109.609C1102.14 109.95 1101.67 110.505 1101.46 111.156C1101.25 111.095 1101.03 111.053 1100.81 111.031C1100.95 110.747 1100.99 110.437 1100.95 110.132C1100.9 109.872 1100.76 109.632 1100.56 109.442C1100.35 109.23 1100.09 109.054 1099.81 108.919C1099.55 108.775 1099.26 108.67 1098.96 108.605C1098.66 108.532 1098.34 108.532 1098.05 108.605C1097.55 108.768 1097.13 109.068 1096.84 109.463C1096.77 109.351 1096.67 109.252 1096.56 109.17C1096.33 108.997 1096.07 108.862 1095.79 108.773C1095.51 108.664 1095.21 108.594 1094.91 108.563H1094.75C1094.93 108.11 1094.93 107.616 1094.75 107.162C1094.6 106.914 1094.4 106.697 1094.15 106.527C1093.9 106.357 1093.61 106.239 1093.31 106.18C1092.71 105.97 1092.04 105.97 1091.44 106.18C1090.82 106.573 1090.39 107.163 1090.24 107.832H1089.98C1089.83 107.811 1089.67 107.811 1089.52 107.832C1089.37 107.811 1089.22 107.811 1089.07 107.832H1088.82C1088.92 107.55 1088.99 107.264 1089.05 106.974C1089.18 106.632 1089.23 106.269 1089.2 105.908C1089.16 105.548 1089.04 105.198 1088.84 104.883C1088.65 104.673 1088.4 104.508 1088.12 104.402C1087.81 104.25 1087.47 104.144 1087.12 104.089C1086.44 104.014 1085.76 104.163 1085.19 104.507C1084.89 104.779 1084.65 105.105 1084.49 105.466C1084.33 105.826 1084.26 106.212 1084.28 106.598C1084.28 106.807 1084.28 107.016 1084.28 107.246H1084.03C1083.76 107.291 1083.5 107.385 1083.28 107.521C1083.05 107.658 1082.85 107.835 1082.7 108.041C1082.32 107.64 1081.79 107.368 1081.22 107.267C1080.91 107.204 1080.59 107.204 1080.29 107.267L1079.87 107.434C1079.72 107.503 1079.58 107.587 1079.45 107.685C1079.16 107.821 1078.91 108.025 1078.74 108.275C1078.57 108.525 1078.48 108.813 1078.47 109.107C1078.48 109.308 1078.53 109.507 1078.61 109.693H1078.26C1077.58 109.608 1076.9 109.758 1076.33 110.111C1076.03 110.384 1075.79 110.71 1075.63 111.07C1075.47 111.43 1075.39 111.815 1075.4 112.202V112.871H1075.15C1074.88 112.922 1074.62 113.02 1074.4 113.16C1074.17 113.3 1073.97 113.479 1073.82 113.687C1073.44 113.291 1072.91 113.026 1072.34 112.934C1072.03 112.871 1071.71 112.871 1071.4 112.934L1070.96 113.101L1070.57 113.331C1070.32 113.466 1070.1 113.651 1069.95 113.873C1069.79 114.094 1069.69 114.345 1069.66 114.607C1069.75 115.252 1070.1 115.846 1070.64 116.28C1070.23 116.71 1070 117.26 1070.01 117.827C1069.75 117.762 1069.48 117.762 1069.22 117.827C1068.87 117.857 1068.52 117.941 1068.2 118.078C1067.81 118.197 1067.45 118.397 1067.16 118.662C1066.87 118.927 1066.65 119.25 1066.52 119.604C1066.24 119.358 1065.89 119.175 1065.52 119.072C1065.14 118.969 1064.74 118.948 1064.35 119.012C1063.96 119.075 1063.6 119.22 1063.28 119.436C1062.97 119.652 1062.72 119.932 1062.55 120.253C1062.37 120.491 1062.24 120.761 1062.18 121.046C1062.12 121.33 1062.13 121.622 1062.2 121.904C1062.34 122.406 1062.83 122.866 1063.78 123.285C1063.68 123.484 1063.61 123.695 1063.57 123.912C1063.29 123.829 1063 123.799 1062.7 123.824C1062.41 123.848 1062.13 123.927 1061.87 124.054C1061.61 124.182 1061.39 124.356 1061.21 124.565C1061.03 124.774 1060.9 125.015 1060.83 125.271C1060.7 125.527 1060.63 125.805 1060.63 126.087C1060.63 126.368 1060.7 126.647 1060.83 126.902C1061.03 127.181 1061.3 127.42 1061.61 127.603C1061.92 127.787 1062.27 127.911 1062.64 127.968C1062.58 128.16 1062.54 128.356 1062.52 128.554C1062.2 128.472 1061.85 128.472 1061.52 128.554C1061.24 128.618 1060.98 128.757 1060.78 128.951C1060.59 129.166 1060.42 129.397 1060.27 129.641C1060.13 129.899 1060.03 130.174 1059.97 130.457C1059.87 130.719 1059.84 130.998 1059.87 131.272C1060.08 131.7 1060.44 132.054 1060.9 132.276C1060.79 132.356 1060.7 132.448 1060.62 132.548C1060.43 132.766 1060.3 133.015 1060.22 133.28C1060.12 133.535 1060.06 133.803 1060.04 134.074C1060.04 134.074 1060.04 134.074 1060.04 134.221C1059.54 134.065 1059 134.065 1058.5 134.221C1058.24 134.389 1058.02 134.604 1057.86 134.852C1057.69 135.101 1057.59 135.377 1057.55 135.664C1057.38 136.221 1057.47 136.813 1057.78 137.316C1058.01 137.582 1058.3 137.805 1058.63 137.97C1058.95 138.135 1059.32 138.24 1059.69 138.277C1059.69 138.277 1059.69 138.445 1059.69 138.507C1059.68 138.647 1059.68 138.787 1059.69 138.926C1059.67 139.058 1059.67 139.191 1059.69 139.323C1059.75 139.587 1059.88 139.833 1060.08 140.034C1060.31 140.266 1060.6 140.44 1060.92 140.536L1061.38 140.64C1061.36 141.202 1061.57 141.752 1061.97 142.188C1062.32 142.455 1062.73 142.653 1063.17 142.768C1063.61 142.884 1064.07 142.914 1064.52 142.857H1065.22C1065.21 142.933 1065.21 143.011 1065.22 143.087C1065.29 143.346 1065.43 143.588 1065.62 143.794C1065.81 144 1066.04 144.166 1066.31 144.279C1066.97 144.443 1067.67 144.376 1068.27 144.091C1068.33 144.158 1068.41 144.214 1068.5 144.258C1068.29 144.54 1068.17 144.863 1068.13 145.199C1068.1 145.484 1068.15 145.77 1068.27 146.035L1068.48 146.412L1068.78 146.767C1068.94 146.981 1069.16 147.157 1069.42 147.28C1069.67 147.404 1069.95 147.472 1070.24 147.478C1070.97 147.341 1071.63 146.97 1072.08 146.433C1073.74 147.165 1075.5 147.692 1077.31 148.001C1081.92 148.742 1086.64 148.777 1091.26 148.105C1093.38 147.975 1095.47 147.493 1097.4 146.683C1099.72 146.683 1101.86 146.516 1104.12 146.412C1104.47 146.751 1104.95 146.972 1105.46 147.039C1105.75 147.033 1106.04 146.965 1106.29 146.841C1106.55 146.718 1106.76 146.542 1106.93 146.328L1107.23 145.973C1107.54 145.877 1107.84 145.751 1108.11 145.596C1108.75 145.929 1109.51 146.027 1110.23 145.868C1110.5 145.754 1110.74 145.588 1110.93 145.382C1111.13 145.176 1111.27 144.936 1111.35 144.676V144.446H1112.07C1112.48 144.48 1112.9 144.438 1113.3 144.323C1113.7 144.208 1114.07 144.023 1114.39 143.777C1114.79 143.352 1115.01 142.809 1115 142.25C1115.22 142.237 1115.45 142.202 1115.67 142.146C1116.01 142.078 1116.33 141.935 1116.6 141.728C1116.78 141.528 1116.91 141.291 1116.97 141.038C1116.98 140.905 1116.98 140.773 1116.97 140.64C1116.98 140.501 1116.98 140.361 1116.97 140.222C1116.97 140.222 1116.97 140.055 1116.97 139.992C1117.72 139.896 1118.41 139.553 1118.9 139.03C1119.06 138.763 1119.16 138.47 1119.19 138.169C1119.22 137.867 1119.19 137.563 1119.09 137.274Z" fill="#F2F6FF" stroke="#0050B2"/>
<path d="M1097.06 117.048C1096.4 117.305 1095.66 117.349 1094.97 117.174C1094.67 117.056 1094.4 116.886 1094.18 116.674C1093.96 116.462 1093.78 116.212 1093.67 115.938C1094.32 115.66 1095.06 115.586 1095.76 115.728C1096.37 116.001 1096.83 116.473 1097.06 117.048Z" fill="#F2F6FF" stroke="#0050B2"/>
<path d="M1096.99 113.847C1096.74 114.592 1096.21 115.24 1095.5 115.688C1094.76 115.956 1093.92 115.956 1093.18 115.688C1093.43 114.944 1093.94 114.296 1094.64 113.847C1095.4 113.566 1096.24 113.566 1096.99 113.847Z" fill="#F2F6FF" stroke="#0050B2"/>
<path d="M1095.06 115.687C1095.06 115.941 1094.98 116.19 1094.83 116.403C1094.68 116.616 1094.46 116.783 1094.19 116.882C1093.94 116.981 1093.65 117.008 1093.37 116.96C1093.09 116.911 1092.84 116.789 1092.64 116.61C1092.44 116.43 1092.3 116.201 1092.25 115.951C1092.2 115.702 1092.23 115.444 1092.34 115.21C1092.45 114.976 1092.63 114.777 1092.87 114.638C1093.11 114.5 1093.38 114.428 1093.66 114.432C1093.85 114.432 1094.03 114.464 1094.2 114.527C1094.37 114.59 1094.52 114.683 1094.65 114.799C1094.78 114.916 1094.88 115.054 1094.95 115.207C1095.02 115.359 1095.06 115.522 1095.06 115.687Z" fill="#F2F6FF" stroke="#0050B2"/>
<path d="M1090.94 129.125C1090.28 129.382 1089.55 129.434 1088.85 129.272C1088.55 129.14 1088.28 128.956 1088.05 128.73C1087.83 128.503 1087.66 128.239 1087.55 127.952C1088.21 127.695 1088.95 127.651 1089.64 127.826C1089.95 127.951 1090.22 128.13 1090.44 128.354C1090.67 128.577 1090.84 128.84 1090.94 129.125Z" fill="#F2F6FF" stroke="#0050B2"/>
<path d="M1090.9 125.965C1090.64 126.715 1090.1 127.364 1089.39 127.807C1089.02 127.945 1088.62 128.016 1088.22 128.016C1087.82 128.016 1087.43 127.945 1087.06 127.807C1087.32 127.057 1087.85 126.408 1088.57 125.965C1089.32 125.688 1090.15 125.688 1090.9 125.965Z" fill="#F2F6FF" stroke="#0050B2"/>
<path d="M1088.97 127.701C1088.96 128.037 1088.81 128.359 1088.54 128.597C1088.28 128.835 1087.92 128.971 1087.55 128.977C1087.17 128.977 1086.81 128.842 1086.54 128.603C1086.28 128.364 1086.13 128.039 1086.13 127.701C1086.13 127.362 1086.28 127.038 1086.54 126.799C1086.81 126.559 1087.17 126.425 1087.55 126.425C1087.92 126.425 1088.28 126.559 1088.55 126.799C1088.82 127.038 1088.97 127.362 1088.97 127.701Z" fill="#F2F6FF" stroke="#0050B2"/>
<path d="M1075.36 123.371C1074.69 123.629 1073.94 123.681 1073.24 123.517C1072.63 123.245 1072.17 122.772 1071.94 122.198C1072.61 121.939 1073.35 121.895 1074.05 122.072C1074.36 122.201 1074.63 122.382 1074.85 122.604C1075.07 122.827 1075.25 123.088 1075.36 123.371Z" fill="#F2F6FF" stroke="#0050B2"/>
<path d="M1075.29 120.211C1075.04 120.955 1074.53 121.603 1073.82 122.052C1073.46 122.191 1073.06 122.262 1072.66 122.262C1072.26 122.262 1071.87 122.191 1071.5 122.052C1071.76 121.302 1072.29 120.653 1073.01 120.211C1073.74 119.943 1074.56 119.943 1075.29 120.211Z" fill="#F2F6FF" stroke="#0050B2"/>
<path d="M1071.94 123.306C1072.72 123.306 1073.36 122.735 1073.36 122.03C1073.36 121.326 1072.72 120.754 1071.94 120.754C1071.16 120.754 1070.52 121.326 1070.52 122.03C1070.52 122.735 1071.16 123.306 1071.94 123.306Z" fill="#F2F6FF" stroke="#0050B2"/>
<path d="M1109.23 132.174C1108.57 132.43 1107.83 132.475 1107.14 132.299C1106.83 132.175 1106.56 131.995 1106.33 131.772C1106.11 131.548 1105.94 131.286 1105.83 131.001C1106.49 130.744 1107.23 130.692 1107.93 130.854C1108.23 130.985 1108.5 131.169 1108.72 131.396C1108.95 131.622 1109.12 131.887 1109.23 132.174Z" fill="#F2F6FF" stroke="#0050B2"/>
<path d="M1109.18 128.993C1108.92 129.743 1108.39 130.392 1107.67 130.835C1106.93 131.109 1106.09 131.109 1105.35 130.835C1105.6 130.089 1106.12 129.441 1106.83 128.993C1107.59 128.72 1108.43 128.72 1109.18 128.993Z" fill="#F2F6FF" stroke="#0050B2"/>
<path d="M1107.25 130.812C1107.25 131.151 1107.1 131.475 1106.83 131.715C1106.57 131.954 1106.21 132.088 1105.83 132.088C1105.55 132.088 1105.28 132.014 1105.04 131.873C1104.81 131.733 1104.63 131.534 1104.52 131.301C1104.41 131.068 1104.39 130.811 1104.44 130.563C1104.49 130.316 1104.63 130.089 1104.83 129.91C1105.03 129.732 1105.28 129.61 1105.56 129.561C1105.83 129.512 1106.11 129.537 1106.37 129.634C1106.63 129.73 1106.86 129.894 1107.01 130.104C1107.17 130.314 1107.25 130.56 1107.25 130.812Z" fill="#F2F6FF" stroke="#0050B2"/>
<path d="M1092.28 143.027C1091.62 143.284 1090.89 143.335 1090.19 143.173C1089.89 143.042 1089.61 142.858 1089.39 142.631C1089.17 142.405 1089 142.14 1088.89 141.854C1089.55 141.597 1090.29 141.553 1090.98 141.728C1091.28 141.853 1091.56 142.032 1091.78 142.256C1092.01 142.479 1092.18 142.741 1092.28 143.027Z" fill="#F2F6FF" stroke="#0050B2"/>
<path d="M1092.24 139.867C1091.98 140.617 1091.44 141.266 1090.73 141.708C1090.36 141.847 1089.96 141.918 1089.56 141.918C1089.16 141.918 1088.77 141.847 1088.4 141.708C1088.66 140.959 1089.19 140.309 1089.91 139.867C1090.66 139.59 1091.49 139.59 1092.24 139.867Z" fill="#F2F6FF" stroke="#0050B2"/>
<path d="M1090.31 141.728C1090.3 142.063 1090.15 142.382 1089.88 142.617C1089.62 142.852 1089.26 142.983 1088.89 142.983C1088.69 143.006 1088.49 142.991 1088.29 142.938C1088.1 142.885 1087.92 142.795 1087.77 142.676C1087.62 142.556 1087.5 142.408 1087.42 142.243C1087.33 142.078 1087.29 141.899 1087.29 141.718C1087.29 141.536 1087.33 141.357 1087.42 141.192C1087.5 141.027 1087.62 140.879 1087.77 140.76C1087.92 140.64 1088.1 140.55 1088.29 140.497C1088.49 140.444 1088.69 140.429 1088.89 140.452C1089.27 140.452 1089.62 140.586 1089.89 140.826C1090.16 141.065 1090.31 141.39 1090.31 141.728Z" fill="#F2F6FF" stroke="#0050B2"/>
<path d="M1070.55 137.109C1069.87 137.356 1069.13 137.4 1068.43 137.234C1068.13 137.106 1067.86 136.925 1067.63 136.702C1067.41 136.479 1067.24 136.219 1067.13 135.936C1067.77 135.691 1068.49 135.64 1069.17 135.789C1069.81 136.048 1070.3 136.523 1070.55 137.109Z" fill="#F2F6FF" stroke="#0050B2"/>
<path d="M1070.47 133.928C1070.22 134.678 1069.68 135.327 1068.96 135.77C1068.22 136.044 1067.38 136.044 1066.64 135.77C1066.9 135.02 1067.43 134.371 1068.15 133.928C1068.89 133.654 1069.73 133.654 1070.47 133.928Z" fill="#F2F6FF" stroke="#0050B2"/>
<path d="M1068.55 135.748C1068.55 136 1068.46 136.247 1068.31 136.456C1068.15 136.666 1067.93 136.83 1067.67 136.926C1067.41 137.023 1067.13 137.048 1066.85 136.999C1066.58 136.95 1066.32 136.828 1066.13 136.65C1065.93 136.471 1065.79 136.244 1065.74 135.997C1065.68 135.749 1065.71 135.492 1065.82 135.259C1065.93 135.026 1066.11 134.827 1066.34 134.687C1066.57 134.547 1066.85 134.472 1067.13 134.472C1067.31 134.472 1067.5 134.505 1067.67 134.569C1067.84 134.633 1068 134.727 1068.13 134.845C1068.26 134.964 1068.37 135.105 1068.44 135.259C1068.51 135.414 1068.55 135.58 1068.55 135.748Z" fill="#F2F6FF" stroke="#0050B2"/>
<path d="M178.656 111.711H175.535V145.663H178.656V111.711Z" fill="#F2F6FF" stroke="#0050B2"/>
<path d="M111.593 111.711H108.473V145.663H111.593V111.711Z" fill="#F2F6FF" stroke="#0050B2"/>
<path d="M102.576 135.999H99.4561V148.906H102.576V135.999Z" fill="#F2F6FF" stroke="#0050B2"/>
<path d="M188.068 135.999H184.949V148.906H188.068V135.999Z" fill="#F2F6FF" stroke="#0050B2"/>
<path d="M183.388 110.999H102.426V116.082H183.388V110.999Z" fill="#F2F6FF" stroke="#0050B2"/>
<path d="M183.388 118.377H102.426V123.46H183.388V118.377Z" fill="#F2F6FF" stroke="#0050B2"/>
<path d="M183.388 125.755H102.426V130.837H183.388V125.755Z" fill="#F2F6FF" stroke="#0050B2"/>
<path d="M190.329 134.911H97.9175V137.078H190.329V134.911Z" fill="#F2F6FF" stroke="#0050B2"/>
<path d="M190.33 134.913H97.9292L104.519 133.814H183.73L190.33 134.913Z" fill="#F2F6FF" stroke="#0050B2"/>
<path d="M177.094 113.795C177.387 113.795 177.625 113.581 177.625 113.316C177.625 113.053 177.387 112.839 177.094 112.839C176.8 112.839 176.562 113.053 176.562 113.316C176.562 113.581 176.8 113.795 177.094 113.795Z" fill="#F2F6FF" stroke="#0050B2"/>
<path d="M177.094 121.396C177.387 121.396 177.625 121.182 177.625 120.918C177.625 120.654 177.387 120.44 177.094 120.44C176.8 120.44 176.562 120.654 176.562 120.918C176.562 121.182 176.8 121.396 177.094 121.396Z" fill="#F2F6FF" stroke="#0050B2"/>
<path d="M177.625 128.52C177.625 128.614 177.594 128.707 177.536 128.785C177.477 128.864 177.395 128.925 177.297 128.961C177.199 128.997 177.093 129.007 176.991 128.988C176.887 128.97 176.792 128.924 176.718 128.857C176.643 128.791 176.593 128.705 176.573 128.613C176.551 128.52 176.562 128.424 176.603 128.337C176.643 128.249 176.711 128.175 176.798 128.122C176.885 128.07 176.989 128.042 177.094 128.042C177.234 128.042 177.37 128.092 177.469 128.182C177.57 128.271 177.625 128.393 177.625 128.52Z" fill="#F2F6FF" stroke="#0050B2"/>
<path d="M110.035 113.795C110.328 113.795 110.566 113.581 110.566 113.316C110.566 113.053 110.328 112.839 110.035 112.839C109.741 112.839 109.503 113.053 109.503 113.316C109.503 113.581 109.741 113.795 110.035 113.795Z" fill="#F2F6FF" stroke="#0050B2"/>
<path d="M110.035 121.396C110.328 121.396 110.566 121.182 110.566 120.918C110.566 120.654 110.328 120.44 110.035 120.44C109.741 120.44 109.503 120.654 109.503 120.918C109.503 121.182 109.741 121.396 110.035 121.396Z" fill="#F2F6FF" stroke="#0050B2"/>
<path d="M110.566 128.52C110.566 128.646 110.51 128.768 110.41 128.857C110.311 128.947 110.176 128.997 110.035 128.997C109.894 128.997 109.758 128.947 109.659 128.857C109.559 128.768 109.503 128.646 109.503 128.52C109.503 128.393 109.559 128.271 109.659 128.182C109.758 128.092 109.894 128.042 110.035 128.042C110.104 128.042 110.174 128.054 110.238 128.078C110.303 128.102 110.361 128.137 110.41 128.182C110.46 128.226 110.499 128.279 110.526 128.337C110.552 128.395 110.566 128.457 110.566 128.52Z" fill="#F2F6FF" stroke="#0050B2"/>
<path d="M956.017 111.702H952.932V145.218H956.017V111.702Z" fill="#F2F6FF" stroke="#0050B2"/>
<path d="M889.673 111.702H886.587V145.218H889.673V111.702Z" fill="#F2F6FF" stroke="#0050B2"/>
<path d="M880.75 135.678H877.664V148.419H880.75V135.678Z" fill="#F2F6FF" stroke="#0050B2"/>
<path d="M965.332 135.678H962.246V148.419H965.332V135.678Z" fill="#F2F6FF" stroke="#0050B2"/>
<path d="M960.701 110.999H880.604V116.016H960.701V110.999Z" fill="#F2F6FF" stroke="#0050B2"/>
<path d="M960.701 118.282H880.604V123.299H960.701V118.282Z" fill="#F2F6FF" stroke="#0050B2"/>
<path d="M960.701 125.566H880.604V130.582H960.701V125.566Z" fill="#F2F6FF" stroke="#0050B2"/>
<path d="M967.567 134.604H876.143V136.742H967.567V134.604Z" fill="#F2F6FF" stroke="#0050B2"/>
<path d="M967.567 134.606H876.155L882.674 133.521H961.038L967.567 134.606Z" fill="#F2F6FF" stroke="#0050B2"/>
<path d="M954.474 113.758C954.765 113.758 955 113.547 955 113.287C955 113.026 954.765 112.815 954.474 112.815C954.184 112.815 953.948 113.026 953.948 113.287C953.948 113.547 954.184 113.758 954.474 113.758Z" fill="#F2F6FF" stroke="#0050B2"/>
<path d="M954.474 121.263C954.765 121.263 955 121.051 955 120.791C955 120.53 954.765 120.319 954.474 120.319C954.184 120.319 953.948 120.53 953.948 120.791C953.948 121.051 954.184 121.263 954.474 121.263Z" fill="#F2F6FF" stroke="#0050B2"/>
<path d="M955 128.295C955 128.388 954.969 128.479 954.911 128.557C954.853 128.634 954.771 128.695 954.675 128.73C954.579 128.766 954.474 128.775 954.372 128.757C954.27 128.739 954.177 128.694 954.103 128.628C954.029 128.562 953.978 128.478 953.958 128.387C953.939 128.295 953.949 128.2 953.989 128.114C954.029 128.028 954.096 127.954 954.183 127.902C954.27 127.85 954.37 127.823 954.474 127.823C954.614 127.823 954.748 127.872 954.846 127.961C954.945 128.049 955 128.169 955 128.295Z" fill="#F2F6FF" stroke="#0050B2"/>
<path d="M888.129 113.758C888.42 113.758 888.655 113.547 888.655 113.287C888.655 113.026 888.42 112.815 888.129 112.815C887.839 112.815 887.603 113.026 887.603 113.287C887.603 113.547 887.839 113.758 888.129 113.758Z" fill="#F2F6FF" stroke="#0050B2"/>
<path d="M888.129 121.263C888.42 121.263 888.655 121.051 888.655 120.791C888.655 120.53 888.42 120.319 888.129 120.319C887.839 120.319 887.603 120.53 887.603 120.791C887.603 121.051 887.839 121.263 888.129 121.263Z" fill="#F2F6FF" stroke="#0050B2"/>
<path d="M888.655 128.295C888.655 128.42 888.6 128.54 888.501 128.628C888.404 128.717 888.269 128.766 888.129 128.766C887.99 128.766 887.856 128.717 887.759 128.628C887.659 128.54 887.603 128.42 887.603 128.295C887.603 128.169 887.659 128.049 887.759 127.961C887.856 127.872 887.99 127.823 888.129 127.823C888.199 127.823 888.268 127.835 888.33 127.859C888.394 127.882 888.452 127.917 888.501 127.961C888.55 128.005 888.59 128.057 888.616 128.114C888.641 128.171 888.655 128.233 888.655 128.295Z" fill="#F2F6FF" stroke="#0050B2"/>
<path d="M563.837 141.862C561.804 137.556 562.362 105.826 562.362 105.826H554.757C554.757 105.826 555.478 139.052 553.282 143.266C551.348 146.931 542.662 148.397 542.662 148.397H575.442C575.442 148.397 565.869 146.137 563.837 141.862Z" fill="#F2F6FF" stroke="#0050B2"/>
<path d="M560.592 148.397H575.442C575.442 148.397 565.838 146.045 563.805 141.77C562.33 138.624 562.33 119.812 562.33 110.742L559.051 111.75C559.051 111.75 557.773 142.472 557.773 143.297C557.77 144.406 557.364 145.481 556.625 146.351C555.774 147.137 554.788 147.787 553.709 148.275L560.592 148.397Z" fill="#F2F6FF" stroke="#0050B2"/>
<path d="M596.422 81.9444C605.043 58.6127 586.391 52.2912 586.391 52.2912C587.075 49.5562 586.606 46.6815 585.081 44.2594C583.728 42.2592 581.78 40.668 579.475 39.6786C580.461 37.8139 580.75 35.6967 580.299 33.6612C579.848 31.6259 578.681 29.7888 576.983 28.4403C582.425 19.6756 574.754 15.3086 574.754 15.3086C575.332 12.939 575.007 10.4559 573.837 8.28467C572.525 6.39126 570.067 4.86432 564.986 4.86432C564.116 3.54432 562.802 2.5292 561.249 1.97688C559.695 1.42457 557.99 1.36605 556.398 1.81044C554.822 2.10554 553.387 2.85379 552.293 3.94962C551.199 5.04545 550.503 6.43357 550.3 7.9182C548.558 7.72462 546.791 7.93879 545.159 8.54132C543.529 9.14385 542.084 10.1158 540.958 11.3691C540.013 12.6661 539.443 14.167 539.3 15.7282C539.155 17.2894 539.445 18.8588 540.138 20.2865C537.738 21.7245 535.794 23.7344 534.51 26.1079C533.224 28.4812 532.643 31.1318 532.827 33.7845C532.722 36.2744 533.466 38.7313 534.948 40.8045C536.433 42.8777 538.581 44.461 541.089 45.3283C537.677 45.6347 534.517 47.1289 532.238 49.5121C531.511 50.6629 531.089 51.9592 531.01 53.2929C530.929 54.6264 531.194 55.9583 531.779 57.1774C531.779 57.1774 524.994 56.9941 522.993 60.903C522.01 62.4841 521.719 64.358 522.184 66.1336C522.649 67.9091 523.831 69.4489 525.485 70.4312C524.112 71.0507 522.911 71.9597 521.98 73.0862C521.049 74.2126 520.411 75.5254 520.118 76.9209C519.825 78.3165 519.886 79.7562 520.295 81.1263C520.702 82.4965 521.447 83.7594 522.469 84.815C519.935 86.8974 518.085 89.6057 517.133 92.6268C516.182 95.6479 516.168 98.8582 517.093 101.886C517.931 105.103 519.78 108.015 522.401 110.25C525.021 112.485 528.299 113.943 531.811 114.438C533.102 116.649 534.991 118.507 537.292 119.825C539.593 121.143 542.224 121.876 544.924 121.95C549.881 121.693 554.557 119.722 558.036 116.423C561.332 118.109 564.964 119.148 568.708 119.473C572.452 119.799 576.229 119.405 579.802 118.316C591.08 115.048 592.489 110.529 593.537 107.017C595.631 105.64 597.404 103.884 598.75 101.853C600.097 99.8218 600.988 97.5583 601.372 95.1982C602.552 86.0976 598.389 83.7767 596.422 81.9444Z" fill="#F2F6FF" stroke="#0050B2"/>
<path d="M559.051 12.8964C560.764 13.4177 562.207 14.5117 563.103 15.9671C563.999 17.4224 564.284 19.1356 563.903 20.7755C562.297 26.8832 558.1 27.7994 553.61 28.0742C554.655 28.9242 555.445 30.0138 555.899 31.235C556.353 32.4562 556.456 33.7668 556.2 35.0371C555.964 36.0859 555.393 37.0438 554.562 37.785C553.732 38.5262 552.681 39.0161 551.545 39.1903C551.545 39.1903 555.643 41.2976 554.823 44.6568C554.689 46.0503 553.977 47.3405 552.839 48.2529C551.701 49.1652 550.224 49.628 548.726 49.543C551.257 50.875 553.289 52.8974 554.549 55.338C555.809 57.7786 556.237 60.5202 555.774 63.1939C555.515 65.8708 554.18 68.3577 552.036 70.1567C554.136 70.2964 556.149 70.9952 557.834 72.1702C559.519 73.345 560.807 74.9464 561.543 76.7836C562.297 78.7476 562.213 80.9058 561.311 82.8144C560.409 84.7229 558.756 86.2368 556.691 87.0447C557.189 88.0491 557.444 89.1439 557.433 90.2505C557.422 91.3568 557.148 92.4474 556.632 93.4435C556.114 94.4394 555.365 95.3162 554.44 96.0105C553.516 96.7047 552.437 97.1992 551.283 97.4585C552.815 98.6412 554.011 100.157 554.765 101.872C555.519 103.587 555.809 105.448 555.609 107.292C553.709 115.873 549.217 118.347 536.105 119.049C538.548 121.012 541.664 122.095 544.89 122.103C549.848 121.847 554.524 119.875 558.003 116.576C561.299 118.262 564.931 119.301 568.675 119.627C572.419 119.952 576.195 119.558 579.769 118.469C591.045 115.202 592.454 110.682 593.504 107.17C595.598 105.793 597.37 104.037 598.717 102.006C600.064 99.9748 600.955 97.7114 601.339 95.3512C602.487 86.1895 598.453 83.9297 596.357 82.0974C604.978 58.7658 586.324 52.4442 586.324 52.4442C587.009 49.7092 586.539 46.8345 585.014 44.4124C583.661 42.4123 581.714 40.8211 579.408 39.8317C580.394 37.9671 580.684 35.8497 580.233 33.8142C579.782 31.7789 578.614 29.9418 576.917 28.5933C582.358 19.8288 574.688 15.4617 574.688 15.4617C575.265 13.092 574.941 10.609 573.77 8.43773C572.524 6.39164 570.066 4.86469 564.985 4.86469C565.198 5.75775 565.212 6.68217 565.024 7.58025C564.837 8.47834 564.453 9.33079 563.897 10.0844C563.339 10.8381 562.621 11.4768 561.788 11.9606C560.954 12.4444 560.023 12.763 559.051 12.8964Z" fill="#F2F6FF" stroke="#0050B2"/>
<path d="M1490.26 141.862C1488.23 137.556 1488.79 105.826 1488.79 105.826H1481.18C1481.18 105.826 1481.9 139.052 1479.71 143.266C1477.77 146.931 1469.09 148.397 1469.09 148.397H1501.87C1501.87 148.397 1492.3 146.137 1490.26 141.862Z" fill="#F2F6FF" stroke="#0050B2"/>
<path d="M1487.02 148.397H1501.87C1501.87 148.397 1492.26 146.045 1490.23 141.77C1488.76 138.624 1488.76 119.812 1488.76 110.742L1485.48 111.75C1485.48 111.75 1484.2 142.472 1484.2 143.297C1484.2 144.406 1483.79 145.481 1483.05 146.351C1482.2 147.137 1481.21 147.787 1480.13 148.275L1487.02 148.397Z" fill="#F2F6FF" stroke="#0050B2"/>
<path d="M1522.85 81.9444C1531.47 58.6127 1512.82 52.2912 1512.82 52.2912C1513.5 49.5562 1513.03 46.6815 1511.51 44.2594C1510.15 42.2592 1508.21 40.668 1505.9 39.6786C1506.89 37.8139 1507.18 35.6965 1506.73 33.6612C1506.27 31.6259 1505.11 29.7888 1503.41 28.4403C1508.85 19.6756 1501.18 15.3086 1501.18 15.3086C1501.76 12.939 1501.43 10.4559 1500.26 8.28466C1498.95 6.39126 1496.49 4.86432 1491.41 4.86432C1490.54 3.54432 1489.23 2.5292 1487.68 1.97688C1486.12 1.42457 1484.42 1.36605 1482.82 1.81044C1481.25 2.10554 1479.81 2.85379 1478.72 3.94962C1477.63 5.04545 1476.93 6.43357 1476.73 7.9182C1474.98 7.72462 1473.22 7.93879 1471.59 8.54132C1469.95 9.14385 1468.51 10.1158 1467.38 11.3691C1466.44 12.6661 1465.87 14.167 1465.73 15.7282C1465.58 17.2894 1465.87 18.8588 1466.56 20.2865C1464.16 21.7244 1462.22 23.7344 1460.94 26.1079C1459.65 28.4812 1459.07 31.1318 1459.25 33.7845C1459.15 36.2744 1459.89 38.7313 1461.37 40.8045C1462.86 42.8777 1465.01 44.461 1467.52 45.3283C1464.1 45.6347 1460.94 47.1289 1458.66 49.5121C1457.94 50.6629 1457.52 51.9592 1457.44 53.2927C1457.36 54.6263 1457.62 55.9583 1458.21 57.1773C1458.21 57.1773 1451.42 56.9941 1449.42 60.903C1448.44 62.4841 1448.15 64.358 1448.61 66.1336C1449.08 67.9091 1450.26 69.4489 1451.91 70.4312C1450.54 71.0507 1449.34 71.9597 1448.41 73.0862C1447.48 74.2126 1446.84 75.5254 1446.54 76.9209C1446.25 78.3165 1446.31 79.7562 1446.72 81.1263C1447.13 82.4965 1447.87 83.7594 1448.9 84.815C1446.36 86.8974 1444.51 89.6057 1443.56 92.6268C1442.61 95.6479 1442.59 98.8582 1443.52 101.886C1444.36 105.103 1446.21 108.015 1448.83 110.25C1451.45 112.485 1454.73 113.943 1458.24 114.438C1459.53 116.649 1461.42 118.506 1463.72 119.825C1466.02 121.143 1468.65 121.876 1471.35 121.95C1476.31 121.693 1480.98 119.722 1484.46 116.423C1487.76 118.109 1491.39 119.148 1495.13 119.473C1498.88 119.799 1502.66 119.405 1506.23 118.316C1517.51 115.048 1518.92 110.529 1519.96 107.017C1522.06 105.64 1523.83 103.884 1525.17 101.853C1526.52 99.8218 1527.41 97.5583 1527.8 95.1982C1528.98 86.0976 1524.81 83.7766 1522.85 81.9444Z" fill="#F2F6FF" stroke="#0050B2"/>
<path d="M1485.48 12.8964C1487.19 13.4177 1488.63 14.5117 1489.53 15.9671C1490.42 17.4224 1490.71 19.1356 1490.33 20.7755C1488.72 26.8832 1484.53 27.7994 1480.04 28.0742C1481.08 28.9242 1481.87 30.0138 1482.32 31.235C1482.78 32.4562 1482.88 33.7668 1482.63 35.0371C1482.39 36.0859 1481.82 37.0438 1480.99 37.785C1480.16 38.5262 1479.11 39.0161 1477.97 39.1903C1477.97 39.1903 1482.07 41.2976 1481.25 44.6568C1481.11 46.0503 1480.4 47.3405 1479.26 48.2527C1478.13 49.1652 1476.65 49.628 1475.15 49.543C1477.68 50.875 1479.71 52.8974 1480.97 55.338C1482.23 57.7786 1482.66 60.5202 1482.2 63.1938C1481.94 65.8708 1480.61 68.3577 1478.46 70.1567C1480.56 70.2964 1482.57 70.9952 1484.26 72.1702C1485.94 73.345 1487.23 74.9464 1487.97 76.7836C1488.72 78.7476 1488.64 80.9058 1487.74 82.8142C1486.83 84.7229 1485.18 86.2368 1483.12 87.0447C1483.62 88.0491 1483.87 89.1439 1483.86 90.2503C1483.85 91.3568 1483.57 92.4474 1483.06 93.4433C1482.54 94.4394 1481.79 95.3162 1480.87 96.0105C1479.94 96.7047 1478.86 97.1992 1477.71 97.4585C1479.24 98.6412 1480.44 100.157 1481.19 101.872C1481.95 103.587 1482.23 105.448 1482.03 107.292C1480.13 115.873 1475.64 118.347 1462.53 119.049C1464.97 121.012 1468.09 122.095 1471.32 122.103C1476.27 121.847 1480.95 119.875 1484.43 116.576C1487.72 118.262 1491.36 119.301 1495.1 119.627C1498.84 119.952 1502.62 119.558 1506.2 118.469C1517.47 115.202 1518.88 110.682 1519.93 107.17C1522.02 105.793 1523.8 104.037 1525.14 102.006C1526.49 99.9748 1527.38 97.7114 1527.77 95.3512C1528.91 86.1895 1524.89 83.9297 1522.78 82.0974C1531.41 58.7658 1512.75 52.4442 1512.75 52.4442C1513.43 49.7092 1512.97 46.8345 1511.44 44.4124C1510.09 42.4123 1508.14 40.8211 1505.83 39.8317C1506.82 37.967 1507.11 35.8497 1506.66 33.8142C1506.21 31.7789 1505.04 29.9418 1503.34 28.5933C1508.78 19.8288 1501.11 15.4617 1501.11 15.4617C1501.69 13.092 1501.37 10.609 1500.2 8.43773C1498.95 6.39164 1496.49 4.86469 1491.41 4.86469C1491.62 5.75775 1491.64 6.68217 1491.45 7.58025C1491.26 8.47832 1490.88 9.33079 1490.32 10.0844C1489.76 10.8381 1489.05 11.4768 1488.21 11.9606C1487.38 12.4444 1486.45 12.7629 1485.48 12.8964Z" fill="#F2F6FF" stroke="#0050B2"/>
<path d="M1752.79 111.711H1749.67V145.663H1752.79V111.711Z" fill="#F2F6FF" stroke="#0050B2"/>
<path d="M1685.71 111.711H1682.61V145.663H1685.71V111.711Z" fill="#F2F6FF" stroke="#0050B2"/>
<path d="M1676.71 135.999H1673.59V148.906H1676.71V135.999Z" fill="#F2F6FF" stroke="#0050B2"/>
<path d="M1762.19 135.999H1759.08V148.906H1762.19V135.999Z" fill="#F2F6FF" stroke="#0050B2"/>
<path d="M1757.51 110.999H1676.56V116.082H1757.51V110.999Z" fill="#F2F6FF" stroke="#0050B2"/>
<path d="M1757.51 118.377H1676.56V123.46H1757.51V118.377Z" fill="#F2F6FF" stroke="#0050B2"/>
<path d="M1757.51 125.755H1676.56V130.837H1757.51V125.755Z" fill="#F2F6FF" stroke="#0050B2"/>
<path d="M1764.46 134.911H1672.05V137.078H1764.46V134.911Z" fill="#F2F6FF" stroke="#0050B2"/>
<path d="M1764.46 134.913H1672.06L1678.64 133.814H1757.86L1764.46 134.913Z" fill="#F2F6FF" stroke="#0050B2"/>
<path d="M1751.22 113.795C1751.51 113.795 1751.75 113.581 1751.75 113.316C1751.75 113.053 1751.51 112.839 1751.22 112.839C1750.93 112.839 1750.69 113.053 1750.69 113.316C1750.69 113.581 1750.93 113.795 1751.22 113.795Z" fill="#F2F6FF" stroke="#0050B2"/>
<path d="M1751.22 121.396C1751.51 121.396 1751.75 121.182 1751.75 120.918C1751.75 120.654 1751.51 120.44 1751.22 120.44C1750.93 120.44 1750.69 120.654 1750.69 120.918C1750.69 121.182 1750.93 121.396 1751.22 121.396Z" fill="#F2F6FF" stroke="#0050B2"/>
<path d="M1751.75 128.52C1751.75 128.614 1751.72 128.707 1751.66 128.785C1751.6 128.864 1751.52 128.925 1751.43 128.961C1751.33 128.997 1751.22 129.007 1751.11 128.988C1751.02 128.97 1750.92 128.924 1750.85 128.857C1750.78 128.791 1750.72 128.705 1750.7 128.613C1750.69 128.52 1750.69 128.424 1750.73 128.337C1750.78 128.249 1750.84 128.175 1750.93 128.122C1751.02 128.07 1751.11 128.042 1751.22 128.042C1751.36 128.042 1751.49 128.092 1751.6 128.182C1751.69 128.271 1751.75 128.393 1751.75 128.52Z" fill="#F2F6FF" stroke="#0050B2"/>
<path d="M1684.16 113.795C1684.45 113.795 1684.69 113.581 1684.69 113.316C1684.69 113.053 1684.45 112.839 1684.16 112.839C1683.87 112.839 1683.63 113.053 1683.63 113.316C1683.63 113.581 1683.87 113.795 1684.16 113.795Z" fill="#F2F6FF" stroke="#0050B2"/>
<path d="M1684.16 121.396C1684.45 121.396 1684.69 121.182 1684.69 120.918C1684.69 120.654 1684.45 120.44 1684.16 120.44C1683.87 120.44 1683.63 120.654 1683.63 120.918C1683.63 121.182 1683.87 121.396 1684.16 121.396Z" fill="#F2F6FF" stroke="#0050B2"/>
<path d="M1684.69 128.52C1684.69 128.646 1684.63 128.768 1684.54 128.857C1684.44 128.947 1684.3 128.997 1684.16 128.997C1684.02 128.997 1683.89 128.947 1683.79 128.857C1683.69 128.768 1683.63 128.646 1683.63 128.52C1683.63 128.393 1683.69 128.271 1683.79 128.182C1683.89 128.092 1684.02 128.042 1684.16 128.042C1684.24 128.042 1684.3 128.054 1684.37 128.078C1684.44 128.102 1684.5 128.137 1684.54 128.182C1684.59 128.226 1684.63 128.279 1684.65 128.337C1684.68 128.395 1684.69 128.457 1684.69 128.52Z" fill="#F2F6FF" stroke="#0050B2"/>
<line opacity="0.5" y1="149.5" x2="1766" y2="149.5" stroke="#0050B2" stroke-dasharray="5 5"/>
</svg>
